PathFileType	4	(X/Y/Z)	Patient4_TMGait_0pt2_01_left_05.trc.trc
DataRate	CameraRate	NumFrames	NumMarkers	Units	OrigDataRate	OrigDataStartFrame	OrigNumFrames
42.813455657492	42.813455657492	4	33	mm	42.813455657492	71	       141
Frame#	Time	Sacral			L.Shoulder			Chest			R.Shoulder			Neck			R.ASIS			L.ASIS			R.Thigh.Superior			R.Thigh.Lateral			R.Thigh.Inferior			R.Patella			L.Thigh.Superior			L.Thigh.Lateral			L.Thigh.Inferior			L.Patella			L.Shank.Superior			L.Shank.Lateral			L.Shank.Inferior			R.Shank.Superior			R.Shank.Lateral			R.Shank.Inferior			R.Heel			R.Midfoot.Superior			R.Midfoot.Lateral			R.Toe			L.Heel			L.Midfoot.Lateral			L.Midfoot.Superior			L.Toe			L.Elbow			L.Wrist			R.Elbow			R.Wrist			
		X1	Y1	Z1	X2	Y2	Z2	X3	Y3	Z3	X4	Y4	Z4	X5	Y5	Z5	X6	Y6	Z6	X7	Y7	Z7	X8	Y8	Z8	X9	Y9	Z9	X10	Y10	Z10	X11	Y11	Z11	X12	Y12	Z12	X13	Y13	Z13	X14	Y14	Z14	X15	Y15	Z15	X16	Y16	Z16	X17	Y17	Z17	X18	Y18	Z18	X19	Y19	Z19	X20	Y20	Z20	X21	Y21	Z21	X22	Y22	Z22	X23	Y23	Z23	X24	Y24	Z24	X25	Y25	Z25	X26	Y26	Z26	X27	Y27	Z27	X28	Y28	Z28	X29	Y29	Z29	X30	Y30	Z30	X31	Y31	Z31	X32	Y32	Z32	X33	Y33	Z33	

71	11.965000000000	792.166276384257	997.407074142063	402.740815238831	990.506135277442	1440.004928031507	274.288655060590	1047.320255705815	1375.246635519145	456.662282755675	914.690327136700	1440.287941020669	600.549611766664	927.955166433425	1496.458953080761	423.792310192431	988.959439287475	947.858693294084	574.229660437583	1041.186137653500	968.096245216337	304.923327024650	1067.871795544984	764.199358429944	558.758632451022	1004.595635030887	644.537657109806	618.925126225078	1100.321074989488	604.680721597521	551.425510001810	1123.294911088044	518.981041823639	569.135738864596	1060.188944151333	740.562716545704	346.212176204149	973.044812838749	627.968161095548	266.771104761427	1026.435605078489	547.173345244178	349.002046932956	1015.320878738879	479.798883764319	358.887700384053	985.540504896425	409.057793762691	346.686324855178	897.510256615135	298.832802545982	286.456472045880	926.470554249993	188.196875011212	369.191454670250	1101.660445123608	428.077282695332	579.715221402697	1034.827561166713	321.175912819690	644.144725588655	1098.539556348226	227.188496069203	598.167795548081	986.916999223351	49.970093835063	569.588425177047	1154.848610901101	107.347192879155	617.347581970072	1067.988309754677	40.350229239005	646.826494644499	1274.147896842251	60.044262408264	647.829374500365	785.586945608912	37.746551104448	399.002223395217	865.444855400122	35.515712379556	323.953928848869	946.563446850408	96.098297112997	358.105073962824	1076.511479049948	45.771289614034	338.611218836548	1169.043594527580	1175.086873156006	118.769749838187	1426.293095541217	1167.197366982861	165.426463792740	766.912899076565	1120.137964390792	669.638472635871	763.271981979622	857.543527229425	670.109836330659	
72	11.988357142857	794.432229497988	996.321955891071	405.457118050826	991.436338943268	1439.380403347348	278.793631121273	1047.580861500112	1374.885957111932	461.466153727806	913.867446837686	1439.503306879294	604.579711529274	928.093698058502	1495.637097433638	427.998112266938	990.411225198999	946.660211440536	577.822868745215	1044.032994393213	967.868793226052	308.819191670608	1068.334383411161	761.683436279680	562.551029667808	1003.035061147268	642.062648630811	621.117710343221	1099.294522311779	602.086248717062	554.533085711749	1120.469918906172	516.746751133251	571.027256304708	1060.378843590847	739.341582491617	348.564293818272	971.391055057969	628.206759180565	268.260620797059	1023.326563109490	546.330254922017	349.970804418155	1011.271464680219	479.245365419027	359.558253430774	981.509499150102	408.886953063373	347.225144378289	893.128092332907	299.051124312146	286.759671617529	921.957453656325	188.147233401044	369.270311719168	1099.934111136157	425.679189313790	581.162586186182	1033.956948178999	318.453602337074	645.576669757032	1097.419683582441	224.994398105039	598.521445646725	985.657634836703	48.714228508794	570.140985964666	1153.812428213030	105.390511506965	616.506456307216	1066.870971761111	39.560241126132	647.086237356694	1272.753114963948	57.759687567938	646.931281803761	780.851183210178	37.756365022046	398.951882498608	860.699791559181	35.488500682131	323.940994501539	941.824696030413	96.073303559810	358.077472116772	1071.775341546841	45.754258020481	338.601418484337	1172.550324634130	1176.901820823404	123.135059315593	1429.889490957437	1174.845274412133	169.774694248456	769.192725294532	1117.623048732897	672.560355656936	769.641748265170	854.879391433250	673.669405195380	
73	12.011714285714	796.953132228796	995.246907447751	408.518437051161	992.423038913995	1438.799850683471	283.619506696762	1048.050483965468	1374.517939327108	466.535588992325	913.318463614981	1438.584679305280	608.992588784744	928.337141932228	1494.774597793841	432.594797964687	992.395983861528	945.473655535203	581.630979324685	1047.086926659003	967.612192228193	312.911439370428	1069.493264104978	759.256772941783	566.098489069489	1002.455572917905	639.700456346225	623.164409113614	1099.032466729383	599.540003931786	557.209161751820	1118.460144279552	514.292918029306	572.615804383771	1060.918992117872	738.050213281970	351.093335062013	970.072066028871	628.359958974479	270.084805904518	1020.654298697846	545.446785474117	351.269585050788	1007.712116785476	478.598740944952	360.560377664635	977.845695252249	408.636756888993	348.059929406186	888.980883793996	299.329177098620	287.279714449350	917.564677922359	188.060843774072	369.453630706932	1098.385128078367	423.096184433108	582.336399932493	1032.540103474551	316.000927100531	646.635093615757	1095.060878378167	222.712407982673	598.454020713008	982.048371515506	47.813972570456	570.286995794598	1150.607936194407	103.624645058717	615.300535790256	1063.344556414016	39.159843156959	647.052955452512	1269.100289630349	55.442390139677	645.873039202360	776.120268181544	37.772852605886	398.902397510962	855.966306860001	35.467375308985	323.938209073539	937.112590435041	96.053808962804	358.064256774976	1067.049486928272	45.720321691569	338.590737686338	1175.656360053466	1178.421774992090	127.671027968674	1432.969921457407	1181.257154579637	174.186296015467	771.979283754384	1114.903088416986	676.404058440258	776.727834956512	852.137457209078	678.724797767616	
74	12.035071428571	799.630524294168	994.279164968827	411.922448053169	993.581697068953	1438.300671622829	288.703495749737	1048.795295657410	1374.161188353061	471.816559167801	913.124654959660	1437.616691020980	613.719892231836	928.783850183520	1493.937281731052	437.510061563286	994.786497348027	944.392114196171	585.679488045486	1050.238122565733	967.323001945550	317.206124116741	1071.184079231830	757.037307008360	569.506972143275	1002.692940548243	637.573295855090	625.225063619959	1099.370327685931	597.164632983629	559.615565863925	1117.190550492273	511.803525356965	574.072985685135	1061.703870012622	736.714545997840	353.866335430330	969.053260382654	628.427515566265	272.287666376475	1018.408348694102	544.536305310389	352.956151053302	1004.639394922860	477.862849723078	361.948039315612	974.557071460425	408.311760073545	349.231027968635	885.072784778486	299.674599818803	288.054610112820	913.293065675760	187.937734060853	369.764657158049	1097.054221997870	420.494835266565	583.395130691015	1030.787335220192	313.807655387794	647.484258878161	1091.897628179080	220.421483293562	598.160187468745	976.881500180901	47.070751695395	570.176363263954	1145.924050287947	102.116244828125	613.966758856294	1058.232697226073	38.958968746971	646.859761535781	1264.007745740920	53.345839546641	644.798503700851	771.400561181839	37.796462873057	398.859317719610	851.249031643194	35.455077335709	323.953156160801	932.431944810469	96.040130825159	358.074267183971	1062.337458803458	45.661930841874	338.582032748844	1178.464542815295	1179.664768864471	132.336906891876	1435.687821312605	1186.478262852329	178.613962684921	775.077832258094	1112.214087496752	681.081511527472	784.197363687573	849.564289538267	685.130285183309	
